#N canvas 0 24 1360 692 10;
#X obj 12 12 cnv 15 146 81 empty empty empty 20 12 0 14 -143168 -66577
0;
#X floatatom 38 22 4 5 1500 0 del #0-maxdelayrcv #0-maxdelaysnd, f
4;
#X floatatom 35 58 3 -48 48 0 - #0-unit1pitchrcv #0-unit1pitchsnd,
f 3;
#X obj 18 57 tgl 15 0 \$0-unit1tglsnd \$0-unit1tglrcv empty 17 7 0
10 -259584 -1 -1 0 1;
#X floatatom 35 75 3 -48 48 0 - #0-unit4pitchrcv #0-unit4pitchsnd,
f 3;
#X obj 18 74 tgl 15 0 \$0-unit4tglsnd \$0-unit4tglrcv empty 17 7 0
10 -259584 -1 -1 0 1;
#X floatatom 80 58 3 -48 48 0 - #0-unit2pitchrcv #0-unit2pitchsnd,
f 3;
#X obj 63 57 tgl 15 0 \$0-unit2tglsnd \$0-unit2tglrcv empty 17 7 0
10 -259584 -1 -1 0 1;
#X floatatom 80 75 3 -48 48 0 - #0-unit5pitchrcv #0-unit5pitchsnd,
f 3;
#X obj 63 74 tgl 15 0 \$0-unit5tglsnd \$0-unit5tglrcv empty 17 7 0
10 -259584 -1 -1 0 1;
#X floatatom 125 58 3 -48 48 0 - #0-unit3pitchrcv #0-unit3pitchsnd
, f 3;
#X obj 108 57 tgl 15 0 \$0-unit3tglsnd \$0-unit3tglrcv empty 17 7 0
10 -259584 -1 -1 0 1;
#X floatatom 125 75 3 -48 48 0 - #0-unit6pitchrcv #0-unit6pitchsnd
, f 3;
#X obj 108 74 tgl 15 0 \$0-unit6tglsnd \$0-unit6tglrcv empty 17 7 0
10 -259584 -1 -1 0 1;
#X obj 130 22 tgl 15 0 \$0-bypasssnd \$0-bypassrcv bp 17 8 0 10 -259584
-1 -1 0 1;
#X obj 45 12 cnv 8 50 8 empty empty kv 32 2 0 8 -108794 -66577 0;
#X obj 93 12 cnv 8 65 8 empty empty ctrl 46 2 0 8 -108794 -66577 0
;
#X floatatom 98 22 3 0 100 0 sprd #0-spreadrcv #0-spreadsnd, f 3;
#X obj 12 12 cnv 8 50 8 empty empty ~ 1 3 0 10 -108794 -184906 0;
#X floatatom 129 40 3 0 2000 0 arp #0-arprcv #0-arpsnd, f 3;
#X floatatom 38 40 3 0 100 0 fb #0-fbrcv #0-fbsnd, f 3;
#X obj 418 390 s \$0-unit1pitchsnd;
#X obj 418 412 s \$0-unit2pitchsnd;
#X obj 418 434 s \$0-unit3pitchsnd;
#X obj 418 456 s \$0-unit4pitchsnd;
#X obj 418 478 s \$0-unit5pitchsnd;
#X obj 418 500 s \$0-unit6pitchsnd;
#X obj 399 287 unpack f f f f f f;
#X obj 455 251 s \$0-maxdelaysnd;
#X obj 651 395 s \$0-arpsnd;
#X obj 772 284 s \$0-fbsnd;
#X obj 455 229 maxlib/scale 0 4000 5 1500 1;
#X obj 651 367 maxlib/scale 0 4000 0 2000 0;
#N canvas 0 24 1360 692 chords 0;
#X obj 160 48 / 4000;
#X obj 160 70 * 8;
#X obj 157 13 inlet;
#X obj 160 92 int;
#X obj 158 139 sel 0 1 2 3 4 5 6 7;
#X obj 138 570 outlet;
#X obj 160 117 f;
#X msg 559 484 set \$1 \$2 \$3 \$4 \$5 \$6;
#X obj 471 420 list;
#X obj 505 420 list;
#X obj 538 420 list;
#X obj 572 420 list;
#X obj 605 420 list;
#X obj 639 420 list;
#X obj 673 421 list;
#X obj 707 421 list;
#X obj 740 38 inlet scramblebang;
#X msg 843 408 8;
#X msg 892 407 0;
#X obj 843 430 until;
#X obj 843 452 f 0;
#X obj 883 454 + 1;
#X obj 699 344 sel 0 1 2 3 4 5 6 7;
#X obj 560 462 listscramble;
#X obj 557 509 list prepend;
#X obj 819 476 t f f;
#X obj 478 60 route 0 1 2 3 4 5 6 7;
#X msg 11 195 0 2 5 9 12 14;
#X msg 103 194 0 3 7 10 12 14;
#X msg 201 194 -12 0 12 -12 0 12;
#X msg 320 195 -1 0 4 7 9 14;
#X msg 421 195 -3 -2 -1 0 1 2;
#X msg 528 195 -2 -0 2 3 7 9;
#X msg 630 196 -5 0 2 5 9 12;
#X msg 740 195 -0.1 -0.05 -0.06 0.03 0.06 0.11;
#N canvas 456 232 450 300 reset 0;
#X msg 68 38 set 0 2 5 9 12 14;
#X msg 94 53 set 0 3 7 10 12 14;
#X msg 132 75 set -12 0 12 -12 0 12;
#X msg 146 97 set -1 0 4 7 9 14;
#X msg 164 118 set -3 -2 -1 0 1 2;
#X msg 176 139 set -2 -0 2 3 7 9;
#X msg 202 161 set -5 0 2 5 9 12;
#X msg 218 182 set -0.1 -0.05 -0.06 0.03 0.06 0.11;
#X obj 55 227 outlet;
#X obj 99 227 outlet;
#X obj 144 227 outlet;
#X obj 188 227 outlet;
#X obj 232 227 outlet;
#X obj 276 227 outlet;
#X obj 322 227 outlet;
#X obj 366 227 outlet;
#X obj 124 8 inlet;
#X connect 0 0 8 0;
#X connect 1 0 9 0;
#X connect 2 0 10 0;
#X connect 3 0 11 0;
#X connect 4 0 12 0;
#X connect 5 0 13 0;
#X connect 6 0 14 0;
#X connect 7 0 15 0;
#X connect 16 0 0 0;
#X connect 16 0 1 0;
#X connect 16 0 2 0;
#X connect 16 0 7 0;
#X connect 16 0 6 0;
#X connect 16 0 5 0;
#X connect 16 0 4 0;
#X connect 16 0 3 0;
#X restore 320 116 pd reset;
#X obj 957 36 bng 15 250 50 0 empty empty empty 17 7 0 10 -262144 -1
-1;
#X msg 985 128 0;
#X obj 956 104 + 1;
#X obj 916 103 f 0;
#X obj 916 126 sel 2;
#X obj 895 345 t b b;
#X obj 839 154 delay 50;
#X obj 985 105 delay 200;
#X obj 601 84 r initbang;
#X obj 601 111 t b b b b b b b b;
#X obj 740 60 sel 1;
#X connect 0 0 1 0;
#X connect 1 0 3 0;
#X connect 2 0 0 0;
#X connect 3 0 6 0;
#X connect 4 0 27 0;
#X connect 4 1 28 0;
#X connect 4 2 29 0;
#X connect 4 3 30 0;
#X connect 4 4 31 0;
#X connect 4 5 32 0;
#X connect 4 6 33 0;
#X connect 4 7 34 0;
#X connect 6 0 4 0;
#X connect 7 0 24 0;
#X connect 8 0 23 0;
#X connect 9 0 23 0;
#X connect 10 0 23 0;
#X connect 11 0 23 0;
#X connect 12 0 23 0;
#X connect 13 0 23 0;
#X connect 14 0 23 0;
#X connect 15 0 23 0;
#X connect 16 0 46 0;
#X connect 17 0 19 0;
#X connect 18 0 20 1;
#X connect 19 0 20 0;
#X connect 20 0 21 0;
#X connect 20 0 25 0;
#X connect 21 0 20 1;
#X connect 22 0 8 0;
#X connect 22 1 9 0;
#X connect 22 2 10 0;
#X connect 22 3 11 0;
#X connect 22 4 12 0;
#X connect 22 5 13 0;
#X connect 22 6 14 0;
#X connect 22 7 15 0;
#X connect 23 0 7 0;
#X connect 24 0 26 0;
#X connect 25 0 22 0;
#X connect 25 1 24 1;
#X connect 26 0 27 0;
#X connect 26 1 28 0;
#X connect 26 2 29 0;
#X connect 26 3 30 0;
#X connect 26 4 31 0;
#X connect 26 5 32 0;
#X connect 26 6 33 0;
#X connect 26 7 34 0;
#X connect 27 0 5 0;
#X connect 27 0 8 1;
#X connect 28 0 5 0;
#X connect 28 0 9 1;
#X connect 29 0 5 0;
#X connect 29 0 10 1;
#X connect 30 0 5 0;
#X connect 30 0 11 1;
#X connect 31 0 5 0;
#X connect 31 0 12 1;
#X connect 32 0 5 0;
#X connect 32 0 13 1;
#X connect 33 0 14 1;
#X connect 33 0 5 0;
#X connect 34 0 5 0;
#X connect 34 0 15 1;
#X connect 35 0 27 0;
#X connect 35 1 28 0;
#X connect 35 2 29 0;
#X connect 35 3 30 0;
#X connect 35 4 31 0;
#X connect 35 5 32 0;
#X connect 35 6 33 0;
#X connect 35 7 34 0;
#X connect 36 0 39 0;
#X connect 36 0 43 0;
#X connect 37 0 39 0;
#X connect 38 0 39 1;
#X connect 39 0 38 0;
#X connect 39 0 40 0;
#X connect 40 0 42 0;
#X connect 41 0 17 0;
#X connect 41 1 18 0;
#X connect 42 0 35 0;
#X connect 43 0 37 0;
#X connect 44 0 45 0;
#X connect 45 0 27 0;
#X connect 45 1 28 0;
#X connect 45 2 29 0;
#X connect 45 3 30 0;
#X connect 45 4 31 0;
#X connect 45 5 32 0;
#X connect 45 6 33 0;
#X connect 45 7 34 0;
#X connect 46 0 36 0;
#X connect 46 0 41 0;
#X restore 301 229 pd chords;
#X obj 397 324 + 0;
#X obj 424 324 + 0;
#X obj 450 324 + 0;
#X obj 477 324 + 0;
#X obj 503 324 + 0;
#X obj 531 324 + 0;
#N canvas 457 256 450 300 transpose 0;
#X obj 123 76 inlet;
#X obj 123 120 int;
#X obj 123 142 outlet;
#X obj 123 98 maxlib/scale 0 4000 -24 24;
#X connect 0 0 3 0;
#X connect 1 0 2 0;
#X connect 3 0 1 0;
#X restore 366 230 pd transpose;
#X obj 517 287 + 0;
#X obj 773 262 maxlib/scale 0 4000 0 550;
#X obj 641 346 f;
#X obj 688 333 metro 163;
#N canvas 235 122 879 586 soundstuff 1;
#X obj 586 147 r \$0-maxdelaysnd;
#N canvas 1 53 450 300 pitchrcv 0;
#X obj 38 37 r \$0-unit1pitchsnd;
#X obj 48 57 r \$0-unit2pitchsnd;
#X obj 180 33 r \$0-unit3pitchsnd;
#X obj 188 57 r \$0-unit4pitchsnd;
#X obj 326 30 r \$0-unit5pitchsnd;
#X obj 324 55 r \$0-unit6pitchsnd;
#X obj 29 119 outlet;
#X obj 87 119 outlet;
#X obj 146 120 outlet;
#X obj 204 120 outlet;
#X obj 261 122 outlet;
#X obj 320 123 outlet;
#X connect 0 0 6 0;
#X connect 1 0 7 0;
#X connect 2 0 8 0;
#X connect 3 0 9 0;
#X connect 4 0 10 0;
#X connect 5 0 11 0;
#X restore 384 69 pd pitchrcv;
#N canvas 1 53 450 300 tglrcv 0;
#X obj 50 72 r \$0-unit1tglsnd;
#X obj 56 98 r \$0-unit2tglsnd;
#X obj 170 72 r \$0-unit3tglsnd;
#X obj 180 92 r \$0-unit4tglsnd;
#X obj 289 70 r \$0-unit5tglsnd;
#X obj 299 90 r \$0-unit6tglsnd;
#X obj 52 175 outlet;
#X obj 101 176 outlet;
#X obj 153 175 outlet;
#X obj 203 175 outlet;
#X obj 256 174 outlet;
#X obj 306 174 outlet;
#X connect 0 0 6 0;
#X connect 1 0 7 0;
#X connect 2 0 8 0;
#X connect 3 0 9 0;
#X connect 4 0 10 0;
#X connect 5 0 11 0;
#X restore 482 66 pd tglrcv;
#X obj 271 378 adamonopan;
#X obj 291 398 adamonopan;
#X obj 351 378 adamonopan;
#X obj 371 398 adamonopan;
#X obj 431 378 adamonopan;
#X obj 451 398 adamonopan;
#N canvas 1 53 450 300 spread 0;
#X obj 61 35 r \$0-spreadsnd;
#X obj 61 57 / 100;
#X obj 76 227 outlet;
#X obj 126 227 outlet;
#X obj 176 227 outlet;
#X obj 226 227 outlet;
#X obj 276 227 outlet;
#X obj 326 227 outlet;
#X obj 24 104 * 1;
#X obj 66 104 * 0.66;
#X obj 125 105 * 0.33;
#X obj 184 106 * -0.33;
#X obj 244 108 * -0.66;
#X obj 296 106 * -1;
#X connect 0 0 1 0;
#X connect 1 0 8 0;
#X connect 1 0 9 0;
#X connect 1 0 10 0;
#X connect 1 0 11 0;
#X connect 1 0 12 0;
#X connect 1 0 13 0;
#X connect 8 0 2 0;
#X connect 9 0 3 0;
#X connect 10 0 4 0;
#X connect 11 0 5 0;
#X connect 12 0 6 0;
#X connect 13 0 7 0;
#X restore 565 347 pd spread;
#N canvas 458 280 626 373 arpunits 0;
#X obj 82 168 ps2arpdelay;
#X obj 101 31 inlet~;
#X obj 147 31 inlet~;
#X obj 191 31 inlet~;
#X obj 237 31 inlet~;
#X obj 281 31 inlet~;
#X obj 327 31 inlet~;
#X obj 89 240 outlet~;
#X obj 138 240 outlet~;
#X obj 187 240 outlet~;
#X obj 236 240 outlet~;
#X obj 285 240 outlet~;
#X obj 334 240 outlet~;
#X obj 156 168 ps2arpdelay;
#X obj 229 168 ps2arpdelay;
#X obj 303 167 ps2arpdelay;
#X obj 377 167 ps2arpdelay;
#X obj 451 167 ps2arpdelay;
#X obj 360 74 *~ 1;
#X obj 392 74 *~ 2;
#X obj 425 74 *~ 3;
#X obj 459 74 *~ 4;
#X obj 497 75 *~ 5;
#X obj 535 75 *~ 6;
#X obj 432 13 inlet~ arpctrl;
#X connect 0 0 7 0;
#X connect 1 0 0 0;
#X connect 2 0 13 0;
#X connect 3 0 14 0;
#X connect 4 0 15 0;
#X connect 5 0 16 0;
#X connect 6 0 17 0;
#X connect 13 0 8 0;
#X connect 14 0 9 0;
#X connect 15 0 10 0;
#X connect 16 0 11 0;
#X connect 17 0 12 0;
#X connect 18 0 0 1;
#X connect 19 0 13 1;
#X connect 20 0 14 1;
#X connect 21 0 15 1;
#X connect 22 0 16 1;
#X connect 23 0 17 1;
#X connect 24 0 18 0;
#X connect 24 0 19 0;
#X connect 24 0 20 0;
#X connect 24 0 21 0;
#X connect 24 0 22 0;
#X connect 24 0 23 0;
#X restore 291 304 pd arpunits;
#X obj 573 205 r \$0-arpsnd;
#X obj 499 308 s~ \$0-fb1;
#X obj 561 308 s~ \$0-fb2;
#X obj 622 309 s~ \$0-fb3;
#X obj 684 309 s~ \$0-fb4;
#X obj 746 309 s~ \$0-fb5;
#X obj 807 310 s~ \$0-fb6;
#X obj 511 277 *~;
#X obj 569 279 *~;
#X obj 621 278 *~;
#X obj 690 276 *~;
#X obj 748 278 *~;
#X obj 800 277 *~;
#X obj 664 192 r \$0-fbsnd;
#X obj 664 214 / 100;
#X obj 267 22 r~ \$0-fb1;
#X obj 332 22 r~ \$0-fb2;
#X obj 396 23 r~ \$0-fb3;
#X obj 461 23 r~ \$0-fb4;
#X obj 522 24 r~ \$0-fb5;
#X obj 587 24 r~ \$0-fb6;
#X obj 191 228 ps2unitexp;
#X obj 258 227 ps2unitexp;
#X obj 319 245 ps2unitexp;
#X obj 381 225 ps2unitexp;
#X obj 443 238 ps2unitexp;
#X obj 507 225 ps2unitexp;
#X obj 664 236 smoother 10;
#X obj 315 453 hip~ 30;
#X obj 455 456 hip~ 30;
#X obj 572 228 sig~;
#X obj 350 574 dac~;
#X obj 225 76 +~;
#X obj 103 31 adc~;
#X obj 166 31 r \$0-blendsnd;
#X obj 450 493 *~ 3;
#X obj 314 484 *~ 3;
#X obj 104 89 adamonopan;
#X obj 180 484 *~ 0.75;
#X obj 113 423 *~;
#X obj 171 386 r \$0-bypasssnd;
#X obj 171 408 smoother 4;
#X connect 0 0 35 2;
#X connect 0 0 32 2;
#X connect 0 0 33 2;
#X connect 0 0 34 2;
#X connect 0 0 36 2;
#X connect 0 0 37 2;
#X connect 1 0 32 1;
#X connect 1 1 33 1;
#X connect 1 2 34 1;
#X connect 1 3 35 1;
#X connect 1 4 36 1;
#X connect 1 5 37 1;
#X connect 2 0 32 3;
#X connect 2 1 33 3;
#X connect 2 2 34 3;
#X connect 2 3 35 3;
#X connect 2 4 36 3;
#X connect 2 5 37 3;
#X connect 3 0 39 0;
#X connect 3 1 40 0;
#X connect 4 0 39 0;
#X connect 4 1 40 0;
#X connect 5 0 39 0;
#X connect 5 1 40 0;
#X connect 6 0 39 0;
#X connect 6 1 40 0;
#X connect 7 0 39 0;
#X connect 7 1 40 0;
#X connect 8 0 39 0;
#X connect 8 1 40 0;
#X connect 9 0 3 1;
#X connect 9 1 4 1;
#X connect 9 2 5 1;
#X connect 9 3 6 1;
#X connect 9 4 7 1;
#X connect 9 5 8 1;
#X connect 10 0 3 0;
#X connect 10 0 18 0;
#X connect 10 1 4 0;
#X connect 10 1 19 0;
#X connect 10 2 5 0;
#X connect 10 2 20 0;
#X connect 10 3 6 0;
#X connect 10 3 21 0;
#X connect 10 4 7 0;
#X connect 10 4 22 0;
#X connect 10 5 8 0;
#X connect 10 5 23 0;
#X connect 11 0 41 0;
#X connect 18 0 12 0;
#X connect 19 0 13 0;
#X connect 20 0 14 0;
#X connect 21 0 15 0;
#X connect 22 0 16 0;
#X connect 23 0 17 0;
#X connect 24 0 25 0;
#X connect 25 0 38 0;
#X connect 26 0 32 0;
#X connect 27 0 33 0;
#X connect 28 0 34 0;
#X connect 29 0 35 0;
#X connect 30 0 36 0;
#X connect 31 0 37 0;
#X connect 32 0 10 0;
#X connect 33 0 10 1;
#X connect 34 0 10 2;
#X connect 35 0 10 3;
#X connect 36 0 10 4;
#X connect 37 0 10 5;
#X connect 38 0 18 1;
#X connect 38 0 19 1;
#X connect 38 0 20 1;
#X connect 38 0 21 1;
#X connect 38 0 22 1;
#X connect 38 0 23 1;
#X connect 39 0 47 0;
#X connect 40 0 46 0;
#X connect 41 0 10 6;
#X connect 43 0 35 0;
#X connect 43 0 32 0;
#X connect 43 0 33 0;
#X connect 43 0 34 0;
#X connect 43 0 36 0;
#X connect 43 0 37 0;
#X connect 44 0 48 0;
#X connect 44 1 48 0;
#X connect 45 0 48 1;
#X connect 46 0 42 1;
#X connect 47 0 42 0;
#X connect 48 0 43 0;
#X connect 48 1 50 0;
#X connect 49 0 42 0;
#X connect 49 0 42 1;
#X connect 50 0 49 0;
#X connect 51 0 52 0;
#X connect 52 0 50 1;
#X restore 176 23 pd soundstuff;
#X obj 301 178 terminal_tedium_adc;
#X obj 336 80 r initbang;
#X msg 296 137 open;
#X msg 357 141 smooth 2;
#X text 1024 45 buttons top to bottom;
#X msg 419 141 deadband 2;
#X obj 335 102 metro 5;
#X obj 1038 59 tedium_switch 23;
#X obj 29 237 tedium_input 4;
#X obj 125 238 tedium_input 17;
#X obj 42 269 tedium_input 14;
#X obj 141 270 tedium_input 27;
#X obj 33 307 s gate0;
#X obj 98 307 s gate1;
#X obj 183 305 s gate2;
#X obj 249 305 s gate3;
#X obj 1041 119 tedium_switch 24;
#X obj 1037 92 tedium_switch 25;
#N canvas 462 376 526 329 shutdown 0;
#X obj 204 4 inlet;
#X obj 106 281 ggee/shell;
#X obj 176 59 moses 2000;
#X obj 351 282 outlet blink;
#X obj 146 128 bang;
#X obj 146 150 delay 1500;
#N canvas 457 256 450 300 blinker 0;
#X obj 217 126 delay 150;
#X obj 171 174 delay 450;
#X obj 158 215 f 0;
#X obj 193 214 + 1;
#X obj 158 237 mod 2;
#X msg 262 100 0;
#X obj 132 139 delay 600;
#X obj 159 69 t b b b b b b b;
#X obj 118 160 delay 750;
#X obj 124 115 delay 900;
#X obj 138 30 bang;
#X obj 72 3 inlet;
#X obj 99 259 outlet;
#X obj 228 150 delay 300;
#X connect 0 0 2 0;
#X connect 1 0 2 0;
#X connect 2 0 3 0;
#X connect 2 0 4 0;
#X connect 3 0 2 1;
#X connect 4 0 12 0;
#X connect 5 0 2 0;
#X connect 6 0 2 0;
#X connect 7 0 9 0;
#X connect 7 1 8 0;
#X connect 7 2 6 0;
#X connect 7 3 1 0;
#X connect 7 4 13 0;
#X connect 7 5 0 0;
#X connect 7 6 5 0;
#X connect 8 0 2 0;
#X connect 9 0 2 0;
#X connect 10 0 7 0;
#X connect 11 0 10 0;
#X connect 13 0 2 0;
#X restore 319 182 pd blinker;
#N canvas 459 304 450 300 rebootblinker 0;
#X obj 158 215 f 0;
#X obj 193 214 + 1;
#X obj 158 237 mod 2;
#X msg 402 111 0;
#X obj 138 30 bang;
#X obj 72 3 inlet;
#X obj 99 259 outlet;
#X obj 217 126 delay 100;
#X obj 228 150 delay 200;
#X obj 124 115 delay 300;
#X obj 132 139 delay 400;
#X obj 118 160 delay 500;
#X obj 188 172 delay 600;
#X obj 159 69 t b b b b b b b b b b b b b;
#X obj 336 135 delay 700;
#X obj 345 158 delay 800;
#X obj 305 180 delay 900;
#X obj 291 229 delay 1000;
#X obj 331 207 delay 1100;
#X obj 292 252 delay 1200;
#X connect 0 0 1 0;
#X connect 0 0 2 0;
#X connect 1 0 0 1;
#X connect 2 0 6 0;
#X connect 3 0 0 0;
#X connect 4 0 13 0;
#X connect 5 0 4 0;
#X connect 7 0 0 0;
#X connect 8 0 0 0;
#X connect 9 0 0 0;
#X connect 10 0 0 0;
#X connect 11 0 0 0;
#X connect 12 0 0 0;
#X connect 13 0 9 0;
#X connect 13 1 11 0;
#X connect 13 2 10 0;
#X connect 13 3 12 0;
#X connect 13 4 8 0;
#X connect 13 5 7 0;
#X connect 13 6 19 0;
#X connect 13 7 17 0;
#X connect 13 8 18 0;
#X connect 13 9 16 0;
#X connect 13 10 15 0;
#X connect 13 11 14 0;
#X connect 13 12 3 0;
#X connect 14 0 0 0;
#X connect 15 0 0 0;
#X connect 16 0 0 0;
#X connect 17 0 0 0;
#X connect 18 0 0 0;
#X connect 19 0 0 0;
#X restore 406 181 pd rebootblinker;
#X msg 111 232 sudo killall pd && sudo python /home/pi/selector.py
;
#X connect 0 0 2 0;
#X connect 2 1 4 0;
#X connect 4 0 5 0;
#X connect 4 0 6 0;
#X connect 5 0 8 0;
#X connect 6 0 3 0;
#X connect 7 0 3 0;
#X connect 8 0 1 0;
#X restore 937 42 pd shutdown;
#N canvas 0 0 450 300 init 0;
#X obj 61 19 loadbang;
#X obj 61 41 delay 300;
#X msg 60 65 \; pd dsp 1;
#X obj 123 70 s initbang;
#X obj 295 -28 r initbang;
#X msg 295 -6 1;
#X obj 295 16 s \$0-unit1tglsnd;
#X obj 295 38 s \$0-unit2tglsnd;
#X obj 295 60 s \$0-unit3tglsnd;
#X obj 295 82 s \$0-unit4tglsnd;
#X obj 295 104 s \$0-unit5tglsnd;
#X obj 295 126 s \$0-unit6tglsnd;
#X msg 285 158 0;
#X msg 374 160 40;
#X obj 374 182 s \$0-maxdelaysnd;
#X msg 385 210 250;
#X obj 385 232 s \$0-arpsnd;
#X obj 199 64 s \$0-bypasssnd;
#X obj 287 184 s \$0-spreadsnd;
#X connect 0 0 1 0;
#X connect 1 0 2 0;
#X connect 1 0 3 0;
#X connect 4 0 5 0;
#X connect 4 0 13 0;
#X connect 4 0 15 0;
#X connect 5 0 6 0;
#X connect 5 0 7 0;
#X connect 5 0 8 0;
#X connect 5 0 9 0;
#X connect 5 0 10 0;
#X connect 5 0 11 0;
#X connect 5 0 12 0;
#X connect 5 0 17 0;
#X connect 12 0 18 0;
#X connect 13 0 14 0;
#X connect 15 0 16 0;
#X restore 179 46 pd init;
#X text 56 200 gates;
#N canvas 224 385 450 323 pulse 0;
#X obj 159 238 outlet pulse;
#X obj 137 117 f;
#X obj 170 117 + 1;
#X obj 137 161 mod 2;
#X obj 212 45 max 2;
#X obj 137 95 metro 150;
#X obj 218 9 inlet;
#X obj 112 23 r initbang;
#X msg 112 45 1;
#X connect 1 0 2 0;
#X connect 1 0 3 0;
#X connect 2 0 1 1;
#X connect 3 0 0 0;
#X connect 4 0 5 1;
#X connect 5 0 1 0;
#X connect 6 0 4 0;
#X connect 7 0 8 0;
#X connect 8 0 5 0;
#X restore 633 447 pd pulse;
#X obj 688 290 r initbang;
#X msg 688 312 1, f 4;
#X text 747 312 arp;
#X obj 560 588 tedium_output 16;
#X obj 691 589 tedium_output 12;
#X obj 825 591 tedium_output 26;
#X obj 652 229 s \$0-blendsnd;
#X obj 676 183 / 2000;
#X obj 676 205 - 1;
#X obj 1073 220 s \$0-bypasssnd;
#N canvas 456 232 450 300 bypasslogic 0;
#X obj 142 81 inlet;
#X obj 142 103 sel 1;
#X obj 142 125 f;
#X obj 196 126 + 1;
#X obj 142 147 mod 2;
#X obj 142 169 outlet;
#X connect 0 0 1 0;
#X connect 1 0 2 0;
#X connect 2 0 3 0;
#X connect 2 0 4 0;
#X connect 3 0 2 1;
#X connect 4 0 5 0;
#X restore 1132 166 pd bypasslogic;
#X obj 241 211 r gate0;
#X msg 241 233 1;
#X connect 27 0 34 0;
#X connect 27 1 35 0;
#X connect 27 2 36 0;
#X connect 27 3 37 0;
#X connect 27 4 38 0;
#X connect 27 5 39 0;
#X connect 31 0 28 0;
#X connect 32 0 29 0;
#X connect 32 0 67 0;
#X connect 33 0 27 0;
#X connect 34 0 21 0;
#X connect 35 0 22 0;
#X connect 36 0 23 0;
#X connect 37 0 24 0;
#X connect 38 0 25 0;
#X connect 39 0 26 0;
#X connect 40 0 41 0;
#X connect 41 0 34 1;
#X connect 41 0 35 1;
#X connect 41 0 36 1;
#X connect 41 0 37 1;
#X connect 41 0 38 1;
#X connect 41 0 39 1;
#X connect 42 0 30 0;
#X connect 43 0 32 0;
#X connect 44 0 43 0;
#X connect 46 0 33 0;
#X connect 46 1 40 0;
#X connect 46 2 31 0;
#X connect 46 3 43 1;
#X connect 46 4 42 0;
#X connect 46 5 75 0;
#X connect 47 0 48 0;
#X connect 47 0 49 0;
#X connect 47 0 51 0;
#X connect 47 0 52 0;
#X connect 48 0 46 0;
#X connect 49 0 46 0;
#X connect 51 0 46 0;
#X connect 52 0 46 0;
#X connect 53 0 64 0;
#X connect 54 0 58 0;
#X connect 55 0 59 0;
#X connect 56 0 60 0;
#X connect 57 0 61 0;
#X connect 62 1 78 0;
#X connect 63 1 33 1;
#X connect 64 0 73 0;
#X connect 67 0 71 0;
#X connect 68 0 69 0;
#X connect 69 0 44 0;
#X connect 75 0 76 0;
#X connect 76 0 74 0;
#X connect 78 0 77 0;
#X connect 78 0 73 0;
#X connect 79 0 80 0;
#X connect 80 0 33 1;
#X coords 0 -1 1 1 150 85 2 10 10;
