#N canvas 46 107 922 393 10;
#X obj 110 183 listswap;
#X obj 232 88 until;
#X msg 231 61 5;
#X obj 221 166 f 0;
#X obj 254 166 + 1;
#X msg 179 77 0;
#X obj 242 237 random;
#X obj 242 259 +;
#X obj 247 193 t b f f;
#X obj 50 0 inlet list;
#X obj 105 362 outlet;
#X obj 314 211 expr 6 - $f1;
#X obj 232 110 t b b;
#X obj 50 22 t b b b a;
#X obj 120 299 list;
#X obj 35 184 list;
#X connect 0 0 14 1;
#X connect 0 0 15 1;
#X connect 1 0 12 0;
#X connect 2 0 1 0;
#X connect 3 0 4 0;
#X connect 3 0 0 1;
#X connect 3 0 8 0;
#X connect 4 0 3 1;
#X connect 5 0 3 1;
#X connect 6 0 7 0;
#X connect 7 0 0 2;
#X connect 8 0 6 0;
#X connect 8 1 7 1;
#X connect 8 2 11 0;
#X connect 9 0 13 0;
#X connect 11 0 6 1;
#X connect 12 0 15 0;
#X connect 12 1 3 0;
#X connect 13 0 14 0;
#X connect 13 1 2 0;
#X connect 13 2 5 0;
#X connect 13 3 15 1;
#X connect 14 0 10 0;
#X connect 15 0 0 0;
