#N canvas 0 24 1360 692 10;
#X obj 539 153 unpack f f f f f f;
#X obj 891 298 pack 0 f;
#X obj 959 299 pack 1 f;
#X obj 1024 300 pack 2 f;
#X obj 1089 301 pack 3 f;
#X obj 1153 302 pack 4 f;
#X obj 1218 305 pack 5 f;
#X obj 831 395 route 0 1 2 3 4 5;
#X obj 938 90 sel 0 1 2 3 4 5;
#X obj 933 125 f \$2;
#X obj 966 125 f \$2;
#X obj 1000 125 f \$2;
#X obj 1033 125 f \$2;
#X obj 1066 126 f \$2;
#X obj 1099 126 f \$2;
#X obj 938 68 f \$1;
#X obj 1171 71 f \$2;
#X obj 1171 93 sel 0 1 2 3 4 5;
#X obj 1164 133 f \$1;
#X obj 1195 133 f \$1;
#X obj 1227 133 f \$1;
#X obj 1258 133 f \$1;
#X obj 1289 133 f \$1;
#X obj 1320 133 f \$1;
#X obj 813 488 pack f f f f f f f;
#X obj 809 546 unpack f f f f f f f;
#X msg 659 280 0;
#X obj 815 597 pack f f f f f f;
#X obj 808 630 outlet;
#X obj 544 26 inlet list;
#X obj 838 161 t b b b b b b;
#X obj 984 8 inlet firstpos;
#X obj 1152 13 inlet secondpos;
#X obj 538 98 t b b b b a b;
#X msg 696 57 0 1 2 3 4 5;
#X obj 701 163 unpack f f f f f f;
#X text 699 33 reset before anything happens;
#X connect 0 0 1 1;
#X connect 0 1 2 1;
#X connect 0 2 3 1;
#X connect 0 3 4 1;
#X connect 0 4 5 1;
#X connect 0 5 6 1;
#X connect 1 0 7 0;
#X connect 2 0 7 0;
#X connect 3 0 7 0;
#X connect 4 0 7 0;
#X connect 5 0 7 0;
#X connect 6 0 7 0;
#X connect 7 0 24 1;
#X connect 7 1 24 2;
#X connect 7 2 24 3;
#X connect 7 3 24 4;
#X connect 7 4 24 5;
#X connect 7 5 24 6;
#X connect 8 0 9 0;
#X connect 8 1 10 0;
#X connect 8 2 11 0;
#X connect 8 3 12 0;
#X connect 8 4 13 0;
#X connect 8 5 14 0;
#X connect 9 0 1 0;
#X connect 10 0 2 0;
#X connect 11 0 3 0;
#X connect 12 0 4 0;
#X connect 13 0 5 0;
#X connect 14 0 6 0;
#X connect 15 0 8 0;
#X connect 16 0 17 0;
#X connect 17 0 18 0;
#X connect 17 1 19 0;
#X connect 17 2 20 0;
#X connect 17 3 21 0;
#X connect 17 4 22 0;
#X connect 17 5 23 0;
#X connect 18 0 1 0;
#X connect 19 0 2 0;
#X connect 20 0 3 0;
#X connect 21 0 4 0;
#X connect 22 0 5 0;
#X connect 23 0 6 0;
#X connect 24 0 25 0;
#X connect 25 1 27 0;
#X connect 25 2 27 1;
#X connect 25 3 27 2;
#X connect 25 4 27 3;
#X connect 25 5 27 4;
#X connect 25 6 27 5;
#X connect 26 0 24 0;
#X connect 27 0 28 0;
#X connect 29 0 33 0;
#X connect 30 0 1 0;
#X connect 30 1 2 0;
#X connect 30 2 3 0;
#X connect 30 3 4 0;
#X connect 30 4 5 0;
#X connect 30 5 6 0;
#X connect 31 0 15 1;
#X connect 31 0 18 1;
#X connect 31 0 19 1;
#X connect 31 0 20 1;
#X connect 31 0 21 1;
#X connect 31 0 22 1;
#X connect 31 0 23 1;
#X connect 32 0 16 1;
#X connect 32 0 9 1;
#X connect 32 0 10 1;
#X connect 32 0 11 1;
#X connect 32 0 12 1;
#X connect 32 0 13 1;
#X connect 32 0 14 1;
#X connect 33 0 26 0;
#X connect 33 1 30 0;
#X connect 33 2 16 0;
#X connect 33 3 15 0;
#X connect 33 4 0 0;
#X connect 33 5 34 0;
#X connect 34 0 35 0;
#X connect 35 0 1 0;
#X connect 35 1 2 0;
#X connect 35 2 3 0;
#X connect 35 3 4 0;
#X connect 35 4 5 0;
#X connect 35 5 6 0;
